<svg width="38" height="38" viewBox="0 0 38 38" fill="none" xmlns="http://www.w3.org/2000/svg">
<rect x="0.382812" y="0.382812" width="1.48936" height="1.48936" fill="black"/>
<rect x="1.87207" y="0.382812" width="1.48936" height="1.48936" fill="black"/>
<rect x="3.36133" y="0.382812" width="1.48936" height="1.48936" fill="black"/>
<rect x="4.85059" y="0.382812" width="1.48936" height="1.48936" fill="black"/>
<rect x="6.33984" y="0.382812" width="1.48936" height="1.48936" fill="black"/>
<rect x="7.83008" y="0.382812" width="1.48936" height="1.48936" fill="black"/>
<rect x="9.31934" y="0.382812" width="1.48936" height="1.48936" fill="black"/>
<rect x="12.2979" y="0.382812" width="1.48936" height="1.48936" fill="black"/>
<rect x="16.7656" y="0.382812" width="1.48936" height="1.48936" fill="black"/>
<rect x="18.2549" y="0.382812" width="1.48936" height="1.48936" fill="black"/>
<rect x="24.2129" y="0.382812" width="1.48936" height="1.48936" fill="black"/>
<rect x="27.1914" y="0.382812" width="1.48936" height="1.48936" fill="black"/>
<rect x="28.6807" y="0.382812" width="1.48936" height="1.48936" fill="black"/>
<rect x="30.1699" y="0.382812" width="1.48936" height="1.48936" fill="black"/>
<rect x="31.6592" y="0.382812" width="1.48936" height="1.48936" fill="black"/>
<rect x="33.1484" y="0.382812" width="1.48936" height="1.48936" fill="black"/>
<rect x="34.6377" y="0.382812" width="1.48936" height="1.48936" fill="black"/>
<rect x="36.1279" y="0.382812" width="1.48936" height="1.48936" fill="black"/>
<rect x="0.382812" y="1.87207" width="1.48936" height="1.48936" fill="black"/>
<rect x="9.31934" y="1.87207" width="1.48936" height="1.48936" fill="black"/>
<rect x="13.7871" y="1.87207" width="1.48936" height="1.48936" fill="black"/>
<rect x="15.2764" y="1.87207" width="1.48936" height="1.48936" fill="black"/>
<rect x="16.7656" y="1.87207" width="1.48936" height="1.48936" fill="black"/>
<rect x="18.2549" y="1.87207" width="1.48936" height="1.48936" fill="black"/>
<rect x="27.1914" y="1.87207" width="1.48936" height="1.48936" fill="black"/>
<rect x="36.1279" y="1.87207" width="1.48936" height="1.48936" fill="black"/>
<rect x="0.382812" y="3.36133" width="1.48936" height="1.48936" fill="black"/>
<rect x="3.36133" y="3.36133" width="1.48936" height="1.48936" fill="black"/>
<rect x="4.85059" y="3.36133" width="1.48936" height="1.48936" fill="black"/>
<rect x="6.33984" y="3.36133" width="1.48936" height="1.48936" fill="black"/>
<rect x="9.31934" y="3.36133" width="1.48936" height="1.48936" fill="black"/>
<rect x="12.2979" y="3.36133" width="1.48936" height="1.48936" fill="black"/>
<rect x="18.2549" y="3.36133" width="1.48936" height="1.48936" fill="black"/>
<rect x="19.7441" y="3.36133" width="1.48936" height="1.48936" fill="black"/>
<rect x="21.2334" y="3.36133" width="1.48936" height="1.48936" fill="black"/>
<rect x="27.1914" y="3.36133" width="1.48936" height="1.48936" fill="black"/>
<rect x="30.1699" y="3.36133" width="1.48936" height="1.48936" fill="black"/>
<rect x="31.6592" y="3.36133" width="1.48936" height="1.48936" fill="black"/>
<rect x="33.1484" y="3.36133" width="1.48936" height="1.48936" fill="black"/>
<rect x="36.1279" y="3.36133" width="1.48936" height="1.48936" fill="black"/>
<rect x="0.382812" y="4.85059" width="1.48936" height="1.48936" fill="black"/>
<rect x="3.36133" y="4.85059" width="1.48936" height="1.48936" fill="black"/>
<rect x="4.85059" y="4.85059" width="1.48936" height="1.48936" fill="black"/>
<rect x="6.33984" y="4.85059" width="1.48936" height="1.48936" fill="black"/>
<rect x="9.31934" y="4.85059" width="1.48936" height="1.48936" fill="black"/>
<rect x="12.2979" y="4.85059" width="1.48936" height="1.48936" fill="black"/>
<rect x="13.7871" y="4.85059" width="1.48936" height="1.48936" fill="black"/>
<rect x="16.7656" y="4.85059" width="1.48936" height="1.48936" fill="black"/>
<rect x="18.2549" y="4.85059" width="1.48936" height="1.48936" fill="black"/>
<rect x="19.7441" y="4.85059" width="1.48936" height="1.48936" fill="black"/>
<rect x="22.7236" y="4.85059" width="1.48936" height="1.48936" fill="black"/>
<rect x="27.1914" y="4.85059" width="1.48936" height="1.48936" fill="black"/>
<rect x="30.1699" y="4.85059" width="1.48936" height="1.48936" fill="black"/>
<rect x="31.6592" y="4.85059" width="1.48936" height="1.48936" fill="black"/>
<rect x="33.1484" y="4.85059" width="1.48936" height="1.48936" fill="black"/>
<rect x="36.1279" y="4.85059" width="1.48936" height="1.48936" fill="black"/>
<rect x="0.382812" y="6.33984" width="1.48936" height="1.48936" fill="black"/>
<rect x="3.36133" y="6.33984" width="1.48936" height="1.48936" fill="black"/>
<rect x="4.85059" y="6.33984" width="1.48936" height="1.48936" fill="black"/>
<rect x="6.33984" y="6.33984" width="1.48936" height="1.48936" fill="black"/>
<rect x="9.31934" y="6.33984" width="1.48936" height="1.48936" fill="black"/>
<rect x="12.2979" y="6.33984" width="1.48936" height="1.48936" fill="black"/>
<rect x="13.7871" y="6.33984" width="1.48936" height="1.48936" fill="black"/>
<rect x="18.2549" y="6.33984" width="1.48936" height="1.48936" fill="black"/>
<rect x="19.7441" y="6.33984" width="1.48936" height="1.48936" fill="black"/>
<rect x="21.2334" y="6.33984" width="1.48936" height="1.48936" fill="black"/>
<rect x="22.7236" y="6.33984" width="1.48936" height="1.48936" fill="black"/>
<rect x="24.2129" y="6.33984" width="1.48936" height="1.48936" fill="black"/>
<rect x="27.1914" y="6.33984" width="1.48936" height="1.48936" fill="black"/>
<rect x="30.1699" y="6.33984" width="1.48936" height="1.48936" fill="black"/>
<rect x="31.6592" y="6.33984" width="1.48936" height="1.48936" fill="black"/>
<rect x="33.1484" y="6.33984" width="1.48936" height="1.48936" fill="black"/>
<rect x="36.1279" y="6.33984" width="1.48936" height="1.48936" fill="black"/>
<rect x="0.382812" y="7.8291" width="1.48936" height="1.48936" fill="black"/>
<rect x="9.31934" y="7.8291" width="1.48936" height="1.48936" fill="black"/>
<rect x="13.7871" y="7.8291" width="1.48936" height="1.48936" fill="black"/>
<rect x="18.2549" y="7.8291" width="1.48936" height="1.48936" fill="black"/>
<rect x="19.7441" y="7.8291" width="1.48936" height="1.48936" fill="black"/>
<rect x="21.2334" y="7.8291" width="1.48936" height="1.48936" fill="black"/>
<rect x="27.1914" y="7.8291" width="1.48936" height="1.48936" fill="black"/>
<rect x="36.1279" y="7.8291" width="1.48936" height="1.48936" fill="black"/>
<rect x="0.382812" y="9.31934" width="1.48936" height="1.48936" fill="black"/>
<rect x="1.87207" y="9.31934" width="1.48936" height="1.48936" fill="black"/>
<rect x="3.36133" y="9.31934" width="1.48936" height="1.48936" fill="black"/>
<rect x="4.85059" y="9.31934" width="1.48936" height="1.48936" fill="black"/>
<rect x="6.33984" y="9.31934" width="1.48936" height="1.48936" fill="black"/>
<rect x="7.83008" y="9.31934" width="1.48936" height="1.48936" fill="black"/>
<rect x="9.31934" y="9.31934" width="1.48936" height="1.48936" fill="black"/>
<rect x="12.2979" y="9.31934" width="1.48936" height="1.48936" fill="black"/>
<rect x="15.2764" y="9.31934" width="1.48936" height="1.48936" fill="black"/>
<rect x="18.2549" y="9.31934" width="1.48936" height="1.48936" fill="black"/>
<rect x="21.2334" y="9.31934" width="1.48936" height="1.48936" fill="black"/>
<rect x="24.2129" y="9.31934" width="1.48936" height="1.48936" fill="black"/>
<rect x="27.1914" y="9.31934" width="1.48936" height="1.48936" fill="black"/>
<rect x="28.6807" y="9.31934" width="1.48936" height="1.48936" fill="black"/>
<rect x="30.1699" y="9.31934" width="1.48936" height="1.48936" fill="black"/>
<rect x="31.6592" y="9.31934" width="1.48936" height="1.48936" fill="black"/>
<rect x="33.1484" y="9.31934" width="1.48936" height="1.48936" fill="black"/>
<rect x="34.6377" y="9.31934" width="1.48936" height="1.48936" fill="black"/>
<rect x="36.1279" y="9.31934" width="1.48936" height="1.48936" fill="black"/>
<rect x="13.7871" y="10.8086" width="1.48936" height="1.48936" fill="black"/>
<rect x="18.2549" y="10.8086" width="1.48936" height="1.48936" fill="black"/>
<rect x="22.7236" y="10.8086" width="1.48936" height="1.48936" fill="black"/>
<rect x="24.2129" y="10.8086" width="1.48936" height="1.48936" fill="black"/>
<rect x="0.382812" y="12.2979" width="1.48936" height="1.48936" fill="black"/>
<rect x="1.87207" y="12.2979" width="1.48936" height="1.48936" fill="black"/>
<rect x="3.36133" y="12.2979" width="1.48936" height="1.48936" fill="black"/>
<rect x="4.85059" y="12.2979" width="1.48936" height="1.48936" fill="black"/>
<rect x="9.31934" y="12.2979" width="1.48936" height="1.48936" fill="black"/>
<rect x="12.2979" y="12.2979" width="1.48936" height="1.48936" fill="black"/>
<rect x="16.7656" y="12.2979" width="1.48936" height="1.48936" fill="black"/>
<rect x="21.2334" y="12.2979" width="1.48936" height="1.48936" fill="black"/>
<rect x="22.7236" y="12.2979" width="1.48936" height="1.48936" fill="black"/>
<rect x="24.2129" y="12.2979" width="1.48936" height="1.48936" fill="black"/>
<rect x="25.7021" y="12.2979" width="1.48936" height="1.48936" fill="black"/>
<rect x="30.1699" y="12.2979" width="1.48936" height="1.48936" fill="black"/>
<rect x="31.6592" y="12.2979" width="1.48936" height="1.48936" fill="black"/>
<rect x="33.1484" y="12.2979" width="1.48936" height="1.48936" fill="black"/>
<rect x="36.1279" y="12.2979" width="1.48936" height="1.48936" fill="black"/>
<rect x="3.36133" y="13.7871" width="1.48936" height="1.48936" fill="black"/>
<rect x="4.85059" y="13.7871" width="1.48936" height="1.48936" fill="black"/>
<rect x="6.33984" y="13.7871" width="1.48936" height="1.48936" fill="black"/>
<rect x="10.8086" y="13.7871" width="1.48936" height="1.48936" fill="black"/>
<rect x="12.2979" y="13.7871" width="1.48936" height="1.48936" fill="black"/>
<rect x="13.7871" y="13.7871" width="1.48936" height="1.48936" fill="black"/>
<rect x="16.7656" y="13.7871" width="1.48936" height="1.48936" fill="black"/>
<rect x="19.7441" y="13.7871" width="1.48936" height="1.48936" fill="black"/>
<rect x="24.2129" y="13.7871" width="1.48936" height="1.48936" fill="black"/>
<rect x="25.7021" y="13.7871" width="1.48936" height="1.48936" fill="black"/>
<rect x="28.6807" y="13.7871" width="1.48936" height="1.48936" fill="black"/>
<rect x="34.6377" y="13.7871" width="1.48936" height="1.48936" fill="black"/>
<rect x="0.382812" y="15.2764" width="1.48936" height="1.48936" fill="black"/>
<rect x="1.87207" y="15.2764" width="1.48936" height="1.48936" fill="black"/>
<rect x="7.83008" y="15.2764" width="1.48936" height="1.48936" fill="black"/>
<rect x="9.31934" y="15.2764" width="1.48936" height="1.48936" fill="black"/>
<rect x="12.2979" y="15.2764" width="1.48936" height="1.48936" fill="black"/>
<rect x="16.7656" y="15.2764" width="1.48936" height="1.48936" fill="black"/>
<rect x="18.2549" y="15.2764" width="1.48936" height="1.48936" fill="black"/>
<rect x="24.2129" y="15.2764" width="1.48936" height="1.48936" fill="black"/>
<rect x="28.6807" y="15.2764" width="1.48936" height="1.48936" fill="black"/>
<rect x="0.382812" y="16.7656" width="1.48936" height="1.48936" fill="black"/>
<rect x="1.87207" y="16.7656" width="1.48936" height="1.48936" fill="black"/>
<rect x="7.83008" y="16.7656" width="1.48936" height="1.48936" fill="black"/>
<rect x="16.7656" y="16.7656" width="1.48936" height="1.48936" fill="black"/>
<rect x="19.7441" y="16.7656" width="1.48936" height="1.48936" fill="black"/>
<rect x="21.2334" y="16.7656" width="1.48936" height="1.48936" fill="black"/>
<rect x="22.7236" y="16.7656" width="1.48936" height="1.48936" fill="black"/>
<rect x="24.2129" y="16.7656" width="1.48936" height="1.48936" fill="black"/>
<rect x="25.7021" y="16.7656" width="1.48936" height="1.48936" fill="black"/>
<rect x="27.1914" y="16.7656" width="1.48936" height="1.48936" fill="black"/>
<rect x="31.6592" y="16.7656" width="1.48936" height="1.48936" fill="black"/>
<rect x="33.1484" y="16.7656" width="1.48936" height="1.48936" fill="black"/>
<rect x="1.87207" y="18.2549" width="1.48936" height="1.48936" fill="black"/>
<rect x="3.36133" y="18.2549" width="1.48936" height="1.48936" fill="black"/>
<rect x="4.85059" y="18.2549" width="1.48936" height="1.48936" fill="black"/>
<rect x="6.33984" y="18.2549" width="1.48936" height="1.48936" fill="black"/>
<rect x="7.83008" y="18.2549" width="1.48936" height="1.48936" fill="black"/>
<rect x="9.31934" y="18.2549" width="1.48936" height="1.48936" fill="black"/>
<rect x="10.8086" y="18.2549" width="1.48936" height="1.48936" fill="black"/>
<rect x="12.2979" y="18.2549" width="1.48936" height="1.48936" fill="black"/>
<rect x="13.7871" y="18.2549" width="1.48936" height="1.48936" fill="black"/>
<rect x="18.2549" y="18.2549" width="1.48936" height="1.48936" fill="black"/>
<rect x="19.7441" y="18.2549" width="1.48936" height="1.48936" fill="black"/>
<rect x="21.2334" y="18.2549" width="1.48936" height="1.48936" fill="black"/>
<rect x="22.7236" y="18.2549" width="1.48936" height="1.48936" fill="black"/>
<rect x="25.7021" y="18.2549" width="1.48936" height="1.48936" fill="black"/>
<rect x="27.1914" y="18.2549" width="1.48936" height="1.48936" fill="black"/>
<rect x="28.6807" y="18.2549" width="1.48936" height="1.48936" fill="black"/>
<rect x="30.1699" y="18.2549" width="1.48936" height="1.48936" fill="black"/>
<rect x="33.1484" y="18.2549" width="1.48936" height="1.48936" fill="black"/>
<rect x="34.6377" y="18.2549" width="1.48936" height="1.48936" fill="black"/>
<rect x="36.1279" y="18.2549" width="1.48936" height="1.48936" fill="black"/>
<rect x="3.36133" y="19.7441" width="1.48936" height="1.48936" fill="black"/>
<rect x="4.85059" y="19.7441" width="1.48936" height="1.48936" fill="black"/>
<rect x="7.83008" y="19.7441" width="1.48936" height="1.48936" fill="black"/>
<rect x="15.2764" y="19.7441" width="1.48936" height="1.48936" fill="black"/>
<rect x="18.2549" y="19.7441" width="1.48936" height="1.48936" fill="black"/>
<rect x="19.7441" y="19.7441" width="1.48936" height="1.48936" fill="black"/>
<rect x="21.2334" y="19.7441" width="1.48936" height="1.48936" fill="black"/>
<rect x="22.7236" y="19.7441" width="1.48936" height="1.48936" fill="black"/>
<rect x="24.2129" y="19.7441" width="1.48936" height="1.48936" fill="black"/>
<rect x="27.1914" y="19.7441" width="1.48936" height="1.48936" fill="black"/>
<rect x="28.6807" y="19.7441" width="1.48936" height="1.48936" fill="black"/>
<rect x="30.1699" y="19.7441" width="1.48936" height="1.48936" fill="black"/>
<rect x="36.1279" y="19.7441" width="1.48936" height="1.48936" fill="black"/>
<rect x="1.87207" y="21.2344" width="1.48936" height="1.48936" fill="black"/>
<rect x="3.36133" y="21.2344" width="1.48936" height="1.48936" fill="black"/>
<rect x="6.33984" y="21.2344" width="1.48936" height="1.48936" fill="black"/>
<rect x="7.83008" y="21.2344" width="1.48936" height="1.48936" fill="black"/>
<rect x="9.31934" y="21.2344" width="1.48936" height="1.48936" fill="black"/>
<rect x="13.7871" y="21.2344" width="1.48936" height="1.48936" fill="black"/>
<rect x="21.2334" y="21.2344" width="1.48936" height="1.48936" fill="black"/>
<rect x="24.2129" y="21.2344" width="1.48936" height="1.48936" fill="black"/>
<rect x="25.7021" y="21.2344" width="1.48936" height="1.48936" fill="black"/>
<rect x="30.1699" y="21.2344" width="1.48936" height="1.48936" fill="black"/>
<rect x="33.1484" y="21.2344" width="1.48936" height="1.48936" fill="black"/>
<rect x="34.6377" y="21.2344" width="1.48936" height="1.48936" fill="black"/>
<rect x="0.382812" y="22.7236" width="1.48936" height="1.48936" fill="black"/>
<rect x="3.36133" y="22.7236" width="1.48936" height="1.48936" fill="black"/>
<rect x="4.85059" y="22.7236" width="1.48936" height="1.48936" fill="black"/>
<rect x="6.33984" y="22.7236" width="1.48936" height="1.48936" fill="black"/>
<rect x="7.83008" y="22.7236" width="1.48936" height="1.48936" fill="black"/>
<rect x="10.8086" y="22.7236" width="1.48936" height="1.48936" fill="black"/>
<rect x="12.2979" y="22.7236" width="1.48936" height="1.48936" fill="black"/>
<rect x="13.7871" y="22.7236" width="1.48936" height="1.48936" fill="black"/>
<rect x="15.2764" y="22.7236" width="1.48936" height="1.48936" fill="black"/>
<rect x="16.7656" y="22.7236" width="1.48936" height="1.48936" fill="black"/>
<rect x="21.2334" y="22.7236" width="1.48936" height="1.48936" fill="black"/>
<rect x="25.7021" y="22.7236" width="1.48936" height="1.48936" fill="black"/>
<rect x="28.6807" y="22.7236" width="1.48936" height="1.48936" fill="black"/>
<rect x="30.1699" y="22.7236" width="1.48936" height="1.48936" fill="black"/>
<rect x="36.1279" y="22.7236" width="1.48936" height="1.48936" fill="black"/>
<rect x="3.36133" y="24.2129" width="1.48936" height="1.48936" fill="black"/>
<rect x="7.83008" y="24.2129" width="1.48936" height="1.48936" fill="black"/>
<rect x="9.31934" y="24.2129" width="1.48936" height="1.48936" fill="black"/>
<rect x="12.2979" y="24.2129" width="1.48936" height="1.48936" fill="black"/>
<rect x="19.7441" y="24.2129" width="1.48936" height="1.48936" fill="black"/>
<rect x="24.2129" y="24.2129" width="1.48936" height="1.48936" fill="black"/>
<rect x="25.7021" y="24.2129" width="1.48936" height="1.48936" fill="black"/>
<rect x="27.1914" y="24.2129" width="1.48936" height="1.48936" fill="black"/>
<rect x="28.6807" y="24.2129" width="1.48936" height="1.48936" fill="black"/>
<rect x="30.1699" y="24.2129" width="1.48936" height="1.48936" fill="black"/>
<rect x="31.6592" y="24.2129" width="1.48936" height="1.48936" fill="black"/>
<rect x="33.1484" y="24.2129" width="1.48936" height="1.48936" fill="black"/>
<rect x="34.6377" y="24.2129" width="1.48936" height="1.48936" fill="black"/>
<rect x="36.1279" y="24.2129" width="1.48936" height="1.48936" fill="black"/>
<rect x="12.2979" y="25.7021" width="1.48936" height="1.48936" fill="black"/>
<rect x="13.7871" y="25.7021" width="1.48936" height="1.48936" fill="black"/>
<rect x="15.2764" y="25.7021" width="1.48936" height="1.48936" fill="black"/>
<rect x="16.7656" y="25.7021" width="1.48936" height="1.48936" fill="black"/>
<rect x="22.7236" y="25.7021" width="1.48936" height="1.48936" fill="black"/>
<rect x="24.2129" y="25.7021" width="1.48936" height="1.48936" fill="black"/>
<rect x="30.1699" y="25.7021" width="1.48936" height="1.48936" fill="black"/>
<rect x="33.1484" y="25.7021" width="1.48936" height="1.48936" fill="black"/>
<rect x="36.1279" y="25.7021" width="1.48936" height="1.48936" fill="black"/>
<rect x="0.382812" y="27.1914" width="1.48936" height="1.48936" fill="black"/>
<rect x="1.87207" y="27.1914" width="1.48936" height="1.48936" fill="black"/>
<rect x="3.36133" y="27.1914" width="1.48936" height="1.48936" fill="black"/>
<rect x="4.85059" y="27.1914" width="1.48936" height="1.48936" fill="black"/>
<rect x="6.33984" y="27.1914" width="1.48936" height="1.48936" fill="black"/>
<rect x="7.83008" y="27.1914" width="1.48936" height="1.48936" fill="black"/>
<rect x="9.31934" y="27.1914" width="1.48936" height="1.48936" fill="black"/>
<rect x="13.7871" y="27.1914" width="1.48936" height="1.48936" fill="black"/>
<rect x="19.7441" y="27.1914" width="1.48936" height="1.48936" fill="black"/>
<rect x="21.2334" y="27.1914" width="1.48936" height="1.48936" fill="black"/>
<rect x="24.2129" y="27.1914" width="1.48936" height="1.48936" fill="black"/>
<rect x="27.1914" y="27.1914" width="1.48936" height="1.48936" fill="black"/>
<rect x="30.1699" y="27.1914" width="1.48936" height="1.48936" fill="black"/>
<rect x="33.1484" y="27.1914" width="1.48936" height="1.48936" fill="black"/>
<rect x="34.6377" y="27.1914" width="1.48936" height="1.48936" fill="black"/>
<rect x="36.1279" y="27.1914" width="1.48936" height="1.48936" fill="black"/>
<rect x="0.382812" y="28.6807" width="1.48936" height="1.48936" fill="black"/>
<rect x="9.31934" y="28.6807" width="1.48936" height="1.48936" fill="black"/>
<rect x="13.7871" y="28.6807" width="1.48936" height="1.48936" fill="black"/>
<rect x="16.7656" y="28.6807" width="1.48936" height="1.48936" fill="black"/>
<rect x="21.2334" y="28.6807" width="1.48936" height="1.48936" fill="black"/>
<rect x="22.7236" y="28.6807" width="1.48936" height="1.48936" fill="black"/>
<rect x="24.2129" y="28.6807" width="1.48936" height="1.48936" fill="black"/>
<rect x="30.1699" y="28.6807" width="1.48936" height="1.48936" fill="black"/>
<rect x="34.6377" y="28.6807" width="1.48936" height="1.48936" fill="black"/>
<rect x="36.1279" y="28.6807" width="1.48936" height="1.48936" fill="black"/>
<rect x="0.382812" y="30.1699" width="1.48936" height="1.48936" fill="black"/>
<rect x="3.36133" y="30.1699" width="1.48936" height="1.48936" fill="black"/>
<rect x="4.85059" y="30.1699" width="1.48936" height="1.48936" fill="black"/>
<rect x="6.33984" y="30.1699" width="1.48936" height="1.48936" fill="black"/>
<rect x="9.31934" y="30.1699" width="1.48936" height="1.48936" fill="black"/>
<rect x="13.7871" y="30.1699" width="1.48936" height="1.48936" fill="black"/>
<rect x="16.7656" y="30.1699" width="1.48936" height="1.48936" fill="black"/>
<rect x="18.2549" y="30.1699" width="1.48936" height="1.48936" fill="black"/>
<rect x="21.2334" y="30.1699" width="1.48936" height="1.48936" fill="black"/>
<rect x="24.2129" y="30.1699" width="1.48936" height="1.48936" fill="black"/>
<rect x="25.7021" y="30.1699" width="1.48936" height="1.48936" fill="black"/>
<rect x="27.1914" y="30.1699" width="1.48936" height="1.48936" fill="black"/>
<rect x="28.6807" y="30.1699" width="1.48936" height="1.48936" fill="black"/>
<rect x="30.1699" y="30.1699" width="1.48936" height="1.48936" fill="black"/>
<rect x="31.6592" y="30.1699" width="1.48936" height="1.48936" fill="black"/>
<rect x="34.6377" y="30.1699" width="1.48936" height="1.48936" fill="black"/>
<rect x="36.1279" y="30.1699" width="1.48936" height="1.48936" fill="black"/>
<rect x="0.382812" y="31.6592" width="1.48936" height="1.48936" fill="black"/>
<rect x="3.36133" y="31.6592" width="1.48936" height="1.48936" fill="black"/>
<rect x="4.85059" y="31.6592" width="1.48936" height="1.48936" fill="black"/>
<rect x="6.33984" y="31.6592" width="1.48936" height="1.48936" fill="black"/>
<rect x="9.31934" y="31.6592" width="1.48936" height="1.48936" fill="black"/>
<rect x="12.2979" y="31.6592" width="1.48936" height="1.48936" fill="black"/>
<rect x="16.7656" y="31.6592" width="1.48936" height="1.48936" fill="black"/>
<rect x="19.7441" y="31.6592" width="1.48936" height="1.48936" fill="black"/>
<rect x="27.1914" y="31.6592" width="1.48936" height="1.48936" fill="black"/>
<rect x="30.1699" y="31.6592" width="1.48936" height="1.48936" fill="black"/>
<rect x="31.6592" y="31.6592" width="1.48936" height="1.48936" fill="black"/>
<rect x="33.1484" y="31.6592" width="1.48936" height="1.48936" fill="black"/>
<rect x="34.6377" y="31.6592" width="1.48936" height="1.48936" fill="black"/>
<rect x="36.1279" y="31.6592" width="1.48936" height="1.48936" fill="black"/>
<rect x="0.382812" y="33.1484" width="1.48936" height="1.48936" fill="black"/>
<rect x="3.36133" y="33.1484" width="1.48936" height="1.48936" fill="black"/>
<rect x="4.85059" y="33.1484" width="1.48936" height="1.48936" fill="black"/>
<rect x="6.33984" y="33.1484" width="1.48936" height="1.48936" fill="black"/>
<rect x="9.31934" y="33.1484" width="1.48936" height="1.48936" fill="black"/>
<rect x="12.2979" y="33.1484" width="1.48936" height="1.48936" fill="black"/>
<rect x="13.7871" y="33.1484" width="1.48936" height="1.48936" fill="black"/>
<rect x="15.2764" y="33.1484" width="1.48936" height="1.48936" fill="black"/>
<rect x="16.7656" y="33.1484" width="1.48936" height="1.48936" fill="black"/>
<rect x="18.2549" y="33.1484" width="1.48936" height="1.48936" fill="black"/>
<rect x="19.7441" y="33.1484" width="1.48936" height="1.48936" fill="black"/>
<rect x="21.2334" y="33.1484" width="1.48936" height="1.48936" fill="black"/>
<rect x="25.7021" y="33.1484" width="1.48936" height="1.48936" fill="black"/>
<rect x="27.1914" y="33.1484" width="1.48936" height="1.48936" fill="black"/>
<rect x="30.1699" y="33.1484" width="1.48936" height="1.48936" fill="black"/>
<rect x="33.1484" y="33.1484" width="1.48936" height="1.48936" fill="black"/>
<rect x="34.6377" y="33.1484" width="1.48936" height="1.48936" fill="black"/>
<rect x="0.382812" y="34.6377" width="1.48936" height="1.48936" fill="black"/>
<rect x="9.31934" y="34.6377" width="1.48936" height="1.48936" fill="black"/>
<rect x="12.2979" y="34.6377" width="1.48936" height="1.48936" fill="black"/>
<rect x="15.2764" y="34.6377" width="1.48936" height="1.48936" fill="black"/>
<rect x="18.2549" y="34.6377" width="1.48936" height="1.48936" fill="black"/>
<rect x="19.7441" y="34.6377" width="1.48936" height="1.48936" fill="black"/>
<rect x="21.2334" y="34.6377" width="1.48936" height="1.48936" fill="black"/>
<rect x="22.7236" y="34.6377" width="1.48936" height="1.48936" fill="black"/>
<rect x="25.7021" y="34.6377" width="1.48936" height="1.48936" fill="black"/>
<rect x="27.1914" y="34.6377" width="1.48936" height="1.48936" fill="black"/>
<rect x="30.1699" y="34.6377" width="1.48936" height="1.48936" fill="black"/>
<rect x="33.1484" y="34.6377" width="1.48936" height="1.48936" fill="black"/>
<rect x="0.382812" y="36.1279" width="1.48936" height="1.48936" fill="black"/>
<rect x="1.87207" y="36.1279" width="1.48936" height="1.48936" fill="black"/>
<rect x="3.36133" y="36.1279" width="1.48936" height="1.48936" fill="black"/>
<rect x="4.85059" y="36.1279" width="1.48936" height="1.48936" fill="black"/>
<rect x="6.33984" y="36.1279" width="1.48936" height="1.48936" fill="black"/>
<rect x="7.83008" y="36.1279" width="1.48936" height="1.48936" fill="black"/>
<rect x="9.31934" y="36.1279" width="1.48936" height="1.48936" fill="black"/>
<rect x="12.2979" y="36.1279" width="1.48936" height="1.48936" fill="black"/>
<rect x="18.2549" y="36.1279" width="1.48936" height="1.48936" fill="black"/>
<rect x="19.7441" y="36.1279" width="1.48936" height="1.48936" fill="black"/>
<rect x="21.2334" y="36.1279" width="1.48936" height="1.48936" fill="black"/>
<rect x="28.6807" y="36.1279" width="1.48936" height="1.48936" fill="black"/>
<rect x="30.1699" y="36.1279" width="1.48936" height="1.48936" fill="black"/>
<rect x="31.6592" y="36.1279" width="1.48936" height="1.48936" fill="black"/>
<rect x="33.1484" y="36.1279" width="1.48936" height="1.48936" fill="black"/>
<rect x="34.6377" y="36.1279" width="1.48936" height="1.48936" fill="black"/>
<rect x="36.1279" y="36.1279" width="1.48936" height="1.48936" fill="black"/>
</svg>
