<svg width="11" height="11" viewBox="0 0 11 11" fill="none" xmlns="http://www.w3.org/2000/svg">
<path fill-rule="evenodd" clip-rule="evenodd" d="M5.86691 9.27286L6.16738 8.93429C6.50834 8.54381 6.815 8.17334 7.08786 7.82096L7.3131 7.52381C8.25358 6.25667 8.72405 5.25096 8.72405 4.50762C8.72405 2.92096 7.445 1.63477 5.86691 1.63477C4.28881 1.63477 3.00977 2.92096 3.00977 4.50762C3.00977 5.25096 3.48024 6.25667 4.42072 7.52381L4.64596 7.82096C5.03521 8.31971 5.44247 8.80416 5.86691 9.27334V9.27286Z" stroke="black" stroke-width="0.8375" stroke-linecap="round" stroke-linejoin="round"/>
<path d="M5.86723 5.68271C6.52472 5.68271 7.05771 5.14972 7.05771 4.49223C7.05771 3.83475 6.52472 3.30176 5.86723 3.30176C5.20975 3.30176 4.67676 3.83475 4.67676 4.49223C4.67676 5.14972 5.20975 5.68271 5.86723 5.68271Z" stroke="black" stroke-width="0.8375" stroke-linecap="round" stroke-linejoin="round"/>
</svg>
